<svg width="250" height="33" viewBox="0 0 250 33" fill="none" xmlns="http://www.w3.org/2000/svg">
<g clip-path="url(#clip0_7089_129737)">
<path d="M27.3049 14.8712V21.2107H22.5449V14.8712C22.5449 14.2391 22.4309 13.6221 22.2062 13.0385C21.9416 12.346 21.5166 11.6988 20.9809 11.1726C20.4452 10.6464 19.7862 10.229 19.0812 9.96882C18.4869 9.74811 17.8589 9.63617 17.2155 9.63617H5.09699L0.333984 4.96094H17.2155C17.3786 4.96094 17.5417 4.96388 17.7018 4.96999C18.6101 5.01238 19.5059 5.17553 20.3619 5.45379C21.8523 5.93472 23.2285 6.76928 24.346 7.86699C25.4638 8.96494 26.3135 10.3167 26.8031 11.7836C27.0864 12.6241 27.2525 13.5013 27.2957 14.3902C27.3019 14.5505 27.3049 14.711 27.3049 14.8712Z" fill="#19BA70"/>
<path d="M31.7506 0.619205C30.3944 -0.712912 28.1957 -0.712912 26.8394 0.619205C25.4832 1.95138 25.4832 4.111 26.8394 5.44312C28.1957 6.77529 30.3944 6.77529 31.7506 5.44312C33.1068 4.111 33.1068 1.95138 31.7506 0.619205Z" fill="#19BA70"/>
<path d="M10.9863 22.653V16.3135H15.7463V22.653C15.7463 23.285 15.8603 23.9021 16.085 24.4856C16.3496 25.1781 16.7746 25.8253 17.3103 26.3515C17.846 26.8777 18.5049 27.2951 19.2099 27.5553C19.8043 27.7761 20.4322 27.888 21.0757 27.888H33.1942L37.9572 32.5632H21.0757C20.9126 32.5632 20.7495 32.5603 20.5894 32.5541C19.6811 32.5118 18.7853 32.3487 17.9293 32.0703C16.4389 31.5895 15.0627 30.7548 13.9452 29.6571C12.8274 28.5592 11.9777 27.2075 11.4881 25.7406C11.2048 24.9001 11.0387 24.0229 10.9955 23.1339C10.9893 22.9737 10.9863 22.8132 10.9863 22.653Z" fill="#19BA70"/>
<path d="M42.6113 26.9843V23.3689L50.0337 14.1524H43.4562V10.5371H54.8308V14.1524L47.4085 23.3689H55.3436V26.9843H42.6113Z" fill="#212131"/>
<path d="M65.9964 13.5903C63.0096 13.5903 61.0184 16.0204 61.0184 18.8356C61.0184 21.5915 63.13 23.9033 65.9964 23.9033C68.9837 23.9033 70.8841 21.5325 70.8841 18.717C70.8841 15.9017 68.953 13.5903 65.9964 13.5903ZM71.0051 26.9852V24.9402C69.6775 26.4816 67.2035 27.5185 65.1519 27.5185C60.1131 27.5185 57.0059 23.3401 57.0059 18.6578C57.0059 13.9458 60.4453 9.97461 65.3931 9.97461C67.2337 9.97461 68.9837 10.7156 70.3409 11.9307C70.5222 12.1085 70.7936 12.375 70.9447 12.6122H71.0051V10.538H74.6857V26.9852H71.0051Z" fill="#212131"/>
<path d="M86.5415 13.5903C83.6449 13.5903 81.5936 15.9908 81.5936 18.7467C81.5936 20.7914 82.5893 22.5694 84.5201 23.429C85.1234 23.7255 85.7871 23.9033 86.4811 23.9033C89.3173 23.9033 91.3688 21.4137 91.3688 18.7467C91.3688 16.1091 89.3776 13.5903 86.5415 13.5903ZM86.9941 27.5185C84.7612 27.5185 83.404 26.8963 81.8348 25.4145V32.4676H77.8223V10.538H81.5031V12.4642H81.5635C82.9514 10.7453 84.7914 9.97461 86.9941 9.97461C91.9118 9.97461 95.3813 14.0051 95.3813 18.6874C95.3813 23.3401 91.9118 27.5185 86.9941 27.5185Z" fill="#212131"/>
<path d="M106.305 13.5903C103.469 13.5903 101.388 16.1091 101.388 18.7763C101.388 21.5325 103.409 23.9033 106.305 23.9033C109.142 23.9033 111.163 21.5028 111.163 18.8062C111.163 16.1684 109.142 13.5903 106.305 13.5903ZM106.305 27.5185C101.418 27.5185 97.375 23.5772 97.375 18.7763C97.375 13.9458 101.358 9.97461 106.305 9.97461C111.253 9.97461 115.176 13.8868 115.176 18.717C115.176 23.6958 111.374 27.5185 106.305 27.5185Z" fill="#212131"/>
<path d="M123.08 27.5186C121.21 27.5186 119.249 26.8074 118.072 25.3552C117.197 24.2588 116.925 23.1623 116.805 21.799H120.908C121.18 22.9844 121.723 23.9031 123.11 23.9031C124.076 23.9031 124.921 23.2512 124.921 22.2436C124.921 21.9472 124.86 21.6511 124.68 21.384C124.136 20.6433 121.994 20.0803 121.149 19.7839C118.917 19.0132 117.408 17.502 117.408 15.0719C117.408 12.0787 120.094 9.97461 123.02 9.97461C125.947 9.97461 128.36 12.1379 128.481 15.0126H124.559C124.378 14.1533 123.865 13.5903 122.96 13.5903C122.115 13.5903 121.421 14.183 121.421 15.0126C121.421 15.872 122.115 16.1091 122.809 16.3759C123.292 16.5538 123.774 16.7019 124.257 16.8499C126.852 17.6503 128.933 18.717 128.933 21.7694C128.933 25.0294 126.399 27.5186 123.08 27.5186Z" fill="#212131"/>
<path d="M135.451 5.0542H131.438V26.984H135.451V5.0542Z" fill="#212131"/>
<path d="M138.951 10.5368H142.964V26.984H138.951V10.5368ZM138.951 5.0542H142.964V8.6697H138.951V5.0542Z" fill="#212131"/>
<path d="M151.744 27.5186C149.874 27.5186 147.913 26.8074 146.736 25.3552C145.861 24.2588 145.589 23.1623 145.469 21.799H149.572C149.843 22.9844 150.387 23.9031 151.775 23.9031C152.74 23.9031 153.585 23.2512 153.585 22.2437C153.585 21.9472 153.525 21.6511 153.343 21.384C152.8 20.6433 150.658 20.0803 149.813 19.7839C147.581 19.0132 146.072 17.502 146.072 15.0719C146.072 12.0787 148.758 9.97461 151.684 9.97461C154.611 9.97461 157.024 12.1379 157.145 15.0127H153.223C153.042 14.1533 152.529 13.5903 151.624 13.5903C150.779 13.5903 150.085 14.183 150.085 15.0127C150.085 15.872 150.779 16.1091 151.473 16.3759C151.956 16.5538 152.438 16.7019 152.921 16.8499C155.516 17.6503 157.597 18.717 157.597 21.7694C157.597 25.0294 155.063 27.5186 151.744 27.5186Z" fill="#212131"/>
<path d="M168.25 13.5903C165.806 13.5903 164.087 15.0129 163.513 17.3538H172.776C172.384 14.983 170.694 13.5903 168.25 13.5903ZM176.638 20.5249H163.634C163.725 20.9693 163.936 21.3547 164.177 21.7103C165.082 23.0736 166.591 23.9033 168.25 23.9033C169.88 23.9033 171.298 23.2512 172.112 21.799H176.336C175.25 25.1477 171.81 27.5185 168.25 27.5185C163.242 27.5185 159.41 23.6958 159.41 18.8062C159.41 13.8868 163.151 9.97461 168.22 9.97461C173.108 9.97461 176.879 13.768 176.879 18.5392C176.879 19.1913 176.788 19.8728 176.638 20.5249Z" fill="#212131"/>
<path d="M183.864 23.0435H179.852V26.985H183.864V23.0435Z" fill="#212131"/>
<path d="M197.992 26.9298V18.5134C197.992 16.1426 197.599 13.535 194.552 13.535C191.565 13.535 191.173 16.2909 191.173 18.5728V26.9298H187.16V5H191.173V11.6384C192.41 10.4826 193.798 9.91922 195.518 9.91922C197.419 9.91922 199.53 10.9567 200.677 12.4385C201.763 13.8314 202.004 15.6684 202.004 17.3873V26.9298H197.992Z" fill="#212131"/>
<path d="M209.849 17.7389V26.985H205.836L205.836 10.5378H209.517L209.517 11.9897H209.577C210.694 10.3893 211.508 9.97461 213.499 9.97461V13.7974C210.874 13.8865 209.849 15.3385 209.849 17.7389Z" fill="#212131"/>
</g>
<path d="M226.574 15V9.18182H228.801C229.222 9.18182 229.571 9.24811 229.849 9.38068C230.13 9.51136 230.339 9.69034 230.477 9.91761C230.617 10.1449 230.688 10.4025 230.688 10.6903C230.688 10.9271 230.642 11.1297 230.551 11.2983C230.46 11.465 230.338 11.6004 230.185 11.7045C230.031 11.8087 229.86 11.8835 229.67 11.929V11.9858C229.877 11.9972 230.075 12.0606 230.264 12.1761C230.455 12.2898 230.612 12.4508 230.733 12.6591C230.854 12.8674 230.915 13.1193 230.915 13.4148C230.915 13.7159 230.842 13.9867 230.696 14.2273C230.55 14.4659 230.33 14.6544 230.037 14.7926C229.743 14.9309 229.374 15 228.929 15H226.574ZM227.628 14.1193H228.761C229.144 14.1193 229.42 14.0464 229.588 13.9006C229.759 13.7528 229.844 13.5634 229.844 13.3324C229.844 13.16 229.801 13.0047 229.716 12.8665C229.631 12.7263 229.509 12.6165 229.352 12.5369C229.195 12.4555 229.008 12.4148 228.79 12.4148H227.628V14.1193ZM227.628 11.6562H228.67C228.852 11.6562 229.016 11.6231 229.162 11.5568C229.308 11.4886 229.422 11.393 229.506 11.2699C229.591 11.1449 229.634 10.9972 229.634 10.8267C229.634 10.6013 229.554 10.4157 229.395 10.2699C229.238 10.1241 229.004 10.0511 228.693 10.0511H227.628V11.6562ZM231.992 15V9.18182H235.776V10.0653H233.046V11.6449H235.58V12.5284H233.046V14.1165H235.798V15H231.992ZM236.755 10.0653V9.18182H241.397V10.0653H239.599V15H238.554V10.0653H236.755ZM242.496 15H241.371L243.42 9.18182H244.721L246.772 15H245.647L244.093 10.375H244.047L242.496 15ZM242.533 12.7188H245.601V13.5653H242.533V12.7188Z" fill="#19BB70"/>
<rect x="223.5" y="5.5" width="26" height="13" rx="1.5" stroke="#19BB70"/>
<defs>
<clipPath id="clip0_7089_129737">
<rect width="213" height="33" fill="white"/>
</clipPath>
</defs>
</svg>
